<svg xmlns="http://www.w3.org/2000/svg" viewBox="0 0 1920 1080" preserveAspectRatio="xMidYMid slice">
  <defs>
    <radialGradient id="bgGlowA" cx="72%" cy="38%" r="56%">
      <stop offset="0%" stop-color="#1f2937" stop-opacity="0.34"/>
      <stop offset="58%" stop-color="#0b0f16" stop-opacity="0.18"/>
      <stop offset="100%" stop-color="#030508" stop-opacity="1"/>
    </radialGradient>
    <radialGradient id="bgGlowB" cx="80%" cy="52%" r="38%">
      <stop offset="0%" stop-color="#e5e7eb" stop-opacity="0.12"/>
      <stop offset="100%" stop-color="#e5e7eb" stop-opacity="0"/>
    </radialGradient>
    <linearGradient id="wire" x1="0" y1="0" x2="1" y2="1">
      <stop offset="0%" stop-color="#d1d5db" stop-opacity="0.08"/>
      <stop offset="50%" stop-color="#f3f4f6" stop-opacity="0.2"/>
      <stop offset="100%" stop-color="#9ca3af" stop-opacity="0.06"/>
    </linearGradient>
    <filter id="soft" x="-20%" y="-20%" width="140%" height="140%">
      <feGaussianBlur stdDeviation="1.2"/>
    </filter>
  </defs>

  <rect width="1920" height="1080" fill="#020305"/>
  <rect width="1920" height="1080" fill="url(#bgGlowA)"/>
  <rect width="1920" height="1080" fill="url(#bgGlowB)"/>

  <!-- Abstract AI head silhouette -->
  <ellipse cx="1450" cy="560" rx="360" ry="430" fill="#06090e" opacity="0.96"/>
  <ellipse cx="1380" cy="560" rx="210" ry="360" fill="#03060a" opacity="0.95"/>

  <!-- Mesh lines -->
  <g stroke="url(#wire)" stroke-width="1.2" fill="none" opacity="0.8">
    <path d="M1120 350 C1260 230, 1510 220, 1730 360" />
    <path d="M1080 460 C1270 300, 1540 300, 1760 470" />
    <path d="M1060 580 C1270 390, 1560 420, 1780 610" />
    <path d="M1075 700 C1285 520, 1570 540, 1790 735" />
    <path d="M1125 815 C1315 670, 1570 700, 1755 840" />
    <path d="M1200 900 C1365 810, 1550 825, 1690 910" />
  </g>

  <!-- Binary particle field -->
  <g fill="#f9fafb" font-family="Consolas, Menlo, monospace" font-size="14" opacity="0.24" filter="url(#soft)">
    <text x="1080" y="300">0101 1100 0011 1010 0101 0110 1101 0101</text>
    <text x="1020" y="360">1011 0010 1110 0101 0001 1101 0110 1001</text>
    <text x="980" y="430">0011 0111 1010 0010 1101 0110 0100 1110</text>
    <text x="960" y="510">1100 1011 0101 0110 0011 1001 1110 0101</text>
    <text x="980" y="590">0110 1101 0010 1011 0101 1110 0011 0100</text>
    <text x="1030" y="670">1010 0101 1100 0111 0010 1110 0101 1001</text>
    <text x="1100" y="750">0011 1010 0110 1101 0101 0010 1110 0101</text>
    <text x="1190" y="830">1101 0101 0011 0110 1010 0101 1110 0011</text>
  </g>

  <!-- Subtle vignette -->
  <rect width="1920" height="1080" fill="#000" opacity="0.28"/>
</svg>
