<svg xmlns="http://www.w3.org/2000/svg" width="20" height="20" viewBox="0 0 20 20" fill="none">
  <path d="M6.6 2.8h7.2c1 0 1.8.8 1.8 1.8v10.8c0 1-.8 1.8-1.8 1.8H6.6c-1 0-1.8-.8-1.8-1.8V4.6c0-1 .8-1.8 1.8-1.8Z" stroke="rgba(235,241,255,0.75)" stroke-width="1.6"/>
  <path d="M8 6.2h6.4M8 9.2h6.4M8 12.2h6.4" stroke="rgba(235,241,255,0.55)" stroke-width="1.4" stroke-linecap="round"/>
  <path d="M2.8 6.1h5.2v7.8H2.8c-.6 0-1-.4-1-1V7.1c0-.6.4-1 1-1Z" fill="rgba(34,197,94,0.22)" stroke="rgba(34,197,94,0.65)" stroke-width="1.2"/>
  <path d="M3.7 8.1l3.4 3.8M7.1 8.1l-3.4 3.8" stroke="rgba(235,241,255,0.9)" stroke-width="1.6" stroke-linecap="round"/>
</svg>
